<?xml version="1.0" encoding="UTF-8"?>
<!--Generator: Apple Native CoreSVG 123-->
<!DOCTYPE svg
PUBLIC "-//W3C//DTD SVG 1.1//EN"
       "http://www.w3.org/Graphics/SVG/1.1/DTD/svg11.dtd">
<svg version="1.1" xmlns="http://www.w3.org/2000/svg" xmlns:xlink="http://www.w3.org/1999/xlink" width="3300" height="2200">
 <!--glyph: "uni100201.medium", point size: 100.000000, font version: "Version 15.0d7e11", template writer version: "5"-->
 <g id="Notes">
  <rect height="2200" id="artboard" style="fill:white;opacity:1" width="3300" x="0" y="0"/>
  <line id="" style="fill:none;stroke:black;opacity:1;stroke-width:0.5;" x1="263" x2="3036" y1="292" y2="292"/>
  <text style="stroke:none;fill:black;font-family:-apple-system,&quot;SF Pro Display&quot;,&quot;SF Pro Text&quot;,Helvetica,sans-serif;font-weight:bold;" transform="matrix(1 0 0 1 263 322)">Weight/Scale Variations</text>
  <text style="stroke:none;fill:black;font-family:-apple-system,&quot;SF Pro Display&quot;,&quot;SF Pro Text&quot;,Helvetica,sans-serif;text-anchor:middle;" transform="matrix(1 0 0 1 559.711 322)">Ultralight</text>
  <text style="stroke:none;fill:black;font-family:-apple-system,&quot;SF Pro Display&quot;,&quot;SF Pro Text&quot;,Helvetica,sans-serif;text-anchor:middle;" transform="matrix(1 0 0 1 856.422 322)">Thin</text>
  <text style="stroke:none;fill:black;font-family:-apple-system,&quot;SF Pro Display&quot;,&quot;SF Pro Text&quot;,Helvetica,sans-serif;text-anchor:middle;" transform="matrix(1 0 0 1 1153.13 322)">Light</text>
  <text style="stroke:none;fill:black;font-family:-apple-system,&quot;SF Pro Display&quot;,&quot;SF Pro Text&quot;,Helvetica,sans-serif;text-anchor:middle;" transform="matrix(1 0 0 1 1449.84 322)">Regular</text>
  <text style="stroke:none;fill:black;font-family:-apple-system,&quot;SF Pro Display&quot;,&quot;SF Pro Text&quot;,Helvetica,sans-serif;text-anchor:middle;" transform="matrix(1 0 0 1 1746.56 322)">Medium</text>
  <text style="stroke:none;fill:black;font-family:-apple-system,&quot;SF Pro Display&quot;,&quot;SF Pro Text&quot;,Helvetica,sans-serif;text-anchor:middle;" transform="matrix(1 0 0 1 2043.27 322)">Semibold</text>
  <text style="stroke:none;fill:black;font-family:-apple-system,&quot;SF Pro Display&quot;,&quot;SF Pro Text&quot;,Helvetica,sans-serif;text-anchor:middle;" transform="matrix(1 0 0 1 2339.98 322)">Bold</text>
  <text style="stroke:none;fill:black;font-family:-apple-system,&quot;SF Pro Display&quot;,&quot;SF Pro Text&quot;,Helvetica,sans-serif;text-anchor:middle;" transform="matrix(1 0 0 1 2636.69 322)">Heavy</text>
  <text style="stroke:none;fill:black;font-family:-apple-system,&quot;SF Pro Display&quot;,&quot;SF Pro Text&quot;,Helvetica,sans-serif;text-anchor:middle;" transform="matrix(1 0 0 1 2933.4 322)">Black</text>
  <line id="" style="fill:none;stroke:black;opacity:1;stroke-width:0.5;" x1="263" x2="3036" y1="1903" y2="1903"/>
  <g id="" transform="matrix(1 0 0 1 263 1933)">
   <path d="M 9.24805 0.830078 C 13.5547 0.830078 17.1387 -2.74414 17.1387 -7.05078 C 17.1387 -11.3574 13.5449 -14.9316 9.23828 -14.9316 C 4.94141 -14.9316 1.36719 -11.3574 1.36719 -7.05078 C 1.36719 -2.74414 4.95117 0.830078 9.24805 0.830078 Z M 9.24805 -0.654297 C 5.70312 -0.654297 2.87109 -3.49609 2.87109 -7.05078 C 2.87109 -10.6055 5.69336 -13.4473 9.23828 -13.4473 C 12.793 -13.4473 15.6348 -10.6055 15.6445 -7.05078 C 15.6543 -3.49609 12.8027 -0.654297 9.24805 -0.654297 Z M 9.22852 -3.42773 C 9.69727 -3.42773 9.9707 -3.74023 9.9707 -4.25781 L 9.9707 -6.31836 L 12.1973 -6.31836 C 12.6953 -6.31836 13.0371 -6.57227 13.0371 -7.04102 C 13.0371 -7.51953 12.7148 -7.7832 12.1973 -7.7832 L 9.9707 -7.7832 L 9.9707 -10.0098 C 9.9707 -10.5273 9.69727 -10.8496 9.22852 -10.8496 C 8.75977 -10.8496 8.50586 -10.5078 8.50586 -10.0098 L 8.50586 -7.7832 L 6.29883 -7.7832 C 5.78125 -7.7832 5.44922 -7.51953 5.44922 -7.04102 C 5.44922 -6.57227 5.80078 -6.31836 6.29883 -6.31836 L 8.50586 -6.31836 L 8.50586 -4.25781 C 8.50586 -3.75977 8.75977 -3.42773 9.22852 -3.42773 Z"/>
  </g>
  <g id="" transform="matrix(1 0 0 1 281.506 1933)">
   <path d="M 11.709 2.91016 C 17.1582 2.91016 21.6699 -1.60156 21.6699 -7.05078 C 21.6699 -12.4902 17.1484 -17.0117 11.6992 -17.0117 C 6.25977 -17.0117 1.74805 -12.4902 1.74805 -7.05078 C 1.74805 -1.60156 6.26953 2.91016 11.709 2.91016 Z M 11.709 1.25 C 7.09961 1.25 3.41797 -2.44141 3.41797 -7.05078 C 3.41797 -11.6504 7.08984 -15.3516 11.6992 -15.3516 C 16.3086 -15.3516 20 -11.6504 20.0098 -7.05078 C 20.0195 -2.44141 16.3184 1.25 11.709 1.25 Z M 11.6895 -2.41211 C 12.207 -2.41211 12.5195 -2.77344 12.5195 -3.33984 L 12.5195 -6.23047 L 15.5762 -6.23047 C 16.123 -6.23047 16.5039 -6.51367 16.5039 -7.03125 C 16.5039 -7.55859 16.1426 -7.86133 15.5762 -7.86133 L 12.5195 -7.86133 L 12.5195 -10.9277 C 12.5195 -11.5039 12.207 -11.8555 11.6895 -11.8555 C 11.1719 -11.8555 10.8789 -11.4844 10.8789 -10.9277 L 10.8789 -7.86133 L 7.83203 -7.86133 C 7.26562 -7.86133 6.89453 -7.55859 6.89453 -7.03125 C 6.89453 -6.51367 7.28516 -6.23047 7.83203 -6.23047 L 10.8789 -6.23047 L 10.8789 -3.33984 C 10.8789 -2.79297 11.1719 -2.41211 11.6895 -2.41211 Z"/>
  </g>
  <g id="" transform="matrix(1 0 0 1 304.924 1933)">
   <path d="M 14.9707 5.67383 C 21.9336 5.67383 27.6953 -0.078125 27.6953 -7.04102 C 27.6953 -14.0039 21.9238 -19.7559 14.9609 -19.7559 C 8.00781 -19.7559 2.25586 -14.0039 2.25586 -7.04102 C 2.25586 -0.078125 8.01758 5.67383 14.9707 5.67383 Z M 14.9707 3.85742 C 8.93555 3.85742 4.08203 -1.00586 4.08203 -7.04102 C 4.08203 -13.0762 8.92578 -17.9395 14.9609 -17.9395 C 21.0059 -17.9395 25.8594 -13.0762 25.8691 -7.04102 C 25.8789 -1.00586 21.0156 3.85742 14.9707 3.85742 Z M 14.9512 -1.06445 C 15.5176 -1.06445 15.8691 -1.45508 15.8691 -2.06055 L 15.8691 -6.13281 L 20.1074 -6.13281 C 20.6934 -6.13281 21.1133 -6.46484 21.1133 -7.02148 C 21.1133 -7.59766 20.7227 -7.93945 20.1074 -7.93945 L 15.8691 -7.93945 L 15.8691 -12.1875 C 15.8691 -12.8027 15.5176 -13.1934 14.9512 -13.1934 C 14.3848 -13.1934 14.0625 -12.7832 14.0625 -12.1875 L 14.0625 -7.93945 L 9.83398 -7.93945 C 9.21875 -7.93945 8.80859 -7.59766 8.80859 -7.02148 C 8.80859 -6.46484 9.23828 -6.13281 9.83398 -6.13281 L 14.0625 -6.13281 L 14.0625 -2.06055 C 14.0625 -1.47461 14.3848 -1.06445 14.9512 -1.06445 Z"/>
  </g>
  <text style="stroke:none;fill:black;font-family:-apple-system,&quot;SF Pro Display&quot;,&quot;SF Pro Text&quot;,Helvetica,sans-serif;font-weight:bold;" transform="matrix(1 0 0 1 263 1953)">Design Variations</text>
  <text style="stroke:none;fill:black;font-family:-apple-system,&quot;SF Pro Display&quot;,&quot;SF Pro Text&quot;,Helvetica,sans-serif;" transform="matrix(1 0 0 1 263 1971)">Symbols are supported in up to nine weights and three scales.</text>
  <text style="stroke:none;fill:black;font-family:-apple-system,&quot;SF Pro Display&quot;,&quot;SF Pro Text&quot;,Helvetica,sans-serif;" transform="matrix(1 0 0 1 263 1989)">For optimal layout with text and other symbols, vertically align</text>
  <text style="stroke:none;fill:black;font-family:-apple-system,&quot;SF Pro Display&quot;,&quot;SF Pro Text&quot;,Helvetica,sans-serif;" transform="matrix(1 0 0 1 263 2007)">symbols with the adjacent text.</text>
  <rect height="14" id="" style="fill:#00AEEF;stroke:none;opacity:0.4;" width="3" x="776" y="1919"/>
  <g id="" transform="matrix(1 0 0 1 779 1933)">
   <path d="M 10.5273 0 L 12.373 0 L 7.17773 -14.0918 L 5.43945 -14.0918 L 0.244141 0 L 2.08984 0 L 3.50586 -4.0332 L 9.11133 -4.0332 Z M 6.2793 -11.9531 L 6.33789 -11.9531 L 8.59375 -5.52734 L 4.02344 -5.52734 Z"/>
  </g>
  <rect height="14" id="" style="fill:#00AEEF;stroke:none;opacity:0.4;" width="3" x="791.617" y="1919"/>
  <text style="stroke:none;fill:black;font-family:-apple-system,&quot;SF Pro Display&quot;,&quot;SF Pro Text&quot;,Helvetica,sans-serif;font-weight:bold;" transform="matrix(1 0 0 1 776 1953)">Margins</text>
  <text style="stroke:none;fill:black;font-family:-apple-system,&quot;SF Pro Display&quot;,&quot;SF Pro Text&quot;,Helvetica,sans-serif;" transform="matrix(1 0 0 1 776 1971)">Leading and trailing margins on the left and right side of each symbol</text>
  <text style="stroke:none;fill:black;font-family:-apple-system,&quot;SF Pro Display&quot;,&quot;SF Pro Text&quot;,Helvetica,sans-serif;" transform="matrix(1 0 0 1 776 1989)">can be adjusted by modifying the width of the blue rectangles.</text>
  <text style="stroke:none;fill:black;font-family:-apple-system,&quot;SF Pro Display&quot;,&quot;SF Pro Text&quot;,Helvetica,sans-serif;" transform="matrix(1 0 0 1 776 2007)">Modifications are automatically applied proportionally to all</text>
  <text style="stroke:none;fill:black;font-family:-apple-system,&quot;SF Pro Display&quot;,&quot;SF Pro Text&quot;,Helvetica,sans-serif;" transform="matrix(1 0 0 1 776 2025)">scales and weights.</text>
  <g id="" transform="matrix(1 0 0 1 1289 1933)">
   <path d="M 2.83203 3.11523 L 4.375 4.6582 C 5.22461 5.48828 6.19141 5.41992 7.06055 4.46289 L 17.2754 -6.66016 C 17.7051 -6.36719 18.0957 -6.37695 18.5645 -6.47461 L 19.6094 -6.68945 L 20.3027 -5.99609 L 20.2539 -5.47852 C 20.1855 -4.95117 20.3516 -4.53125 20.8496 -4.0332 L 21.6602 -3.22266 C 22.168 -2.71484 22.8223 -2.68555 23.3008 -3.16406 L 26.5527 -6.41602 C 27.0312 -6.89453 27.0117 -7.54883 26.5039 -8.05664 L 25.6836 -8.87695 C 25.1855 -9.375 24.7754 -9.55078 24.2383 -9.47266 L 23.7109 -9.41406 L 23.0566 -10.0781 L 23.3398 -11.2207 C 23.4863 -11.7871 23.3398 -12.2559 22.7148 -12.8613 L 20.3027 -15.2539 C 16.7578 -18.7793 12.2266 -18.6719 9.11133 -15.5371 C 8.69141 -15.1074 8.64258 -14.5215 8.91602 -14.0918 C 9.15039 -13.7207 9.62891 -13.4961 10.2734 -13.6621 C 11.7871 -14.043 13.3008 -13.9258 14.7852 -12.9199 L 14.1602 -11.3379 C 13.9258 -10.752 13.9453 -10.2734 14.1797 -9.83398 L 3.01758 0.439453 C 2.08008 1.30859 1.97266 2.25586 2.83203 3.11523 Z M 10.6738 -15.1465 C 13.3398 -17.1387 16.6504 -16.8262 19.0527 -14.4141 L 21.6797 -11.8066 C 21.9141 -11.5723 21.9434 -11.3867 21.8848 -11.0938 L 21.5039 -9.53125 L 23.0762 -7.95898 L 24.043 -8.04688 C 24.3262 -8.07617 24.4141 -8.05664 24.6387 -7.83203 L 25.2637 -7.20703 L 22.5098 -4.46289 L 21.8848 -5.07812 C 21.6602 -5.30273 21.6406 -5.40039 21.6699 -5.68359 L 21.7578 -6.64062 L 20.1953 -8.20312 L 18.5742 -7.89062 C 18.291 -7.83203 18.1445 -7.83203 17.9102 -8.07617 L 15.7324 -10.2539 C 15.5078 -10.4883 15.4785 -10.625 15.6055 -10.9473 L 16.5527 -13.2227 C 14.9512 -14.7559 12.8418 -15.6055 10.8008 -14.9512 C 10.7129 -14.9219 10.6445 -14.9414 10.6152 -14.9805 C 10.5859 -15.0293 10.5859 -15.0781 10.6738 -15.1465 Z M 4.10156 2.41211 C 3.61328 1.91406 3.78906 1.61133 4.12109 1.30859 L 15.0781 -8.80859 L 16.3086 -7.57812 L 6.15234 3.34961 C 5.84961 3.68164 5.46875 3.7793 5.06836 3.37891 Z"/>
  </g>
  <text style="stroke:none;fill:black;font-family:-apple-system,&quot;SF Pro Display&quot;,&quot;SF Pro Text&quot;,Helvetica,sans-serif;font-weight:bold;" transform="matrix(1 0 0 1 1289 1953)">Exporting</text>
  <text style="stroke:none;fill:black;font-family:-apple-system,&quot;SF Pro Display&quot;,&quot;SF Pro Text&quot;,Helvetica,sans-serif;" transform="matrix(1 0 0 1 1289 1971)">Symbols should be outlined when exporting to ensure the</text>
  <text style="stroke:none;fill:black;font-family:-apple-system,&quot;SF Pro Display&quot;,&quot;SF Pro Text&quot;,Helvetica,sans-serif;" transform="matrix(1 0 0 1 1289 1989)">design is preserved when submitting to Xcode.</text>
  <text id="template-version" style="stroke:none;fill:black;font-family:-apple-system,&quot;SF Pro Display&quot;,&quot;SF Pro Text&quot;,Helvetica,sans-serif;text-anchor:end;" transform="matrix(1 0 0 1 3036 1933)">Template v.1.0</text>
  <text style="stroke:none;fill:black;font-family:-apple-system,&quot;SF Pro Display&quot;,&quot;SF Pro Text&quot;,Helvetica,sans-serif;text-anchor:end;" transform="matrix(1 0 0 1 3036 1951)">Generated from drop.triangle.fill</text>
  <text style="stroke:none;fill:black;font-family:-apple-system,&quot;SF Pro Display&quot;,&quot;SF Pro Text&quot;,Helvetica,sans-serif;text-anchor:end;" transform="matrix(1 0 0 1 3036 1969)">Typeset at 100 points</text>
  <text style="stroke:none;fill:black;font-family:-apple-system,&quot;SF Pro Display&quot;,&quot;SF Pro Text&quot;,Helvetica,sans-serif;" transform="matrix(1 0 0 1 263 726)">Small</text>
  <text style="stroke:none;fill:black;font-family:-apple-system,&quot;SF Pro Display&quot;,&quot;SF Pro Text&quot;,Helvetica,sans-serif;" transform="matrix(1 0 0 1 263 1156)">Medium</text>
  <text style="stroke:none;fill:black;font-family:-apple-system,&quot;SF Pro Display&quot;,&quot;SF Pro Text&quot;,Helvetica,sans-serif;" transform="matrix(1 0 0 1 263 1586)">Large</text>
 </g>
 <g id="Guides">
  <g id="H-reference" style="fill:#27AAE1;stroke:none;" transform="matrix(1 0 0 1 339 696)">
   <path d="M 54.9316 0 L 57.666 0 L 30.5664 -70.459 L 28.0762 -70.459 L 0.976562 0 L 3.66211 0 L 12.9395 -24.4629 L 45.7031 -24.4629 Z M 29.1992 -67.0898 L 29.4434 -67.0898 L 44.8242 -26.709 L 13.8184 -26.709 Z"/>
  </g>
  <line id="Baseline-S" style="fill:none;stroke:#27AAE1;opacity:1;stroke-width:0.577;" x1="263" x2="3036" y1="696" y2="696"/>
  <line id="Capline-S" style="fill:none;stroke:#27AAE1;opacity:1;stroke-width:0.577;" x1="263" x2="3036" y1="625.541" y2="625.541"/>
  <g id="H-reference" style="fill:#27AAE1;stroke:none;" transform="matrix(1 0 0 1 339 1126)">
   <path d="M 54.9316 0 L 57.666 0 L 30.5664 -70.459 L 28.0762 -70.459 L 0.976562 0 L 3.66211 0 L 12.9395 -24.4629 L 45.7031 -24.4629 Z M 29.1992 -67.0898 L 29.4434 -67.0898 L 44.8242 -26.709 L 13.8184 -26.709 Z"/>
  </g>
  <line id="Baseline-M" style="fill:none;stroke:#27AAE1;opacity:1;stroke-width:0.577;" x1="263" x2="3036" y1="1126" y2="1126"/>
  <line id="Capline-M" style="fill:none;stroke:#27AAE1;opacity:1;stroke-width:0.577;" x1="263" x2="3036" y1="1055.54" y2="1055.54"/>
  <g id="H-reference" style="fill:#27AAE1;stroke:none;" transform="matrix(1 0 0 1 339 1556)">
   <path d="M 54.9316 0 L 57.666 0 L 30.5664 -70.459 L 28.0762 -70.459 L 0.976562 0 L 3.66211 0 L 12.9395 -24.4629 L 45.7031 -24.4629 Z M 29.1992 -67.0898 L 29.4434 -67.0898 L 44.8242 -26.709 L 13.8184 -26.709 Z"/>
  </g>
  <line id="Baseline-L" style="fill:none;stroke:#27AAE1;opacity:1;stroke-width:0.577;" x1="263" x2="3036" y1="1556" y2="1556"/>
  <line id="Capline-L" style="fill:none;stroke:#27AAE1;opacity:1;stroke-width:0.577;" x1="263" x2="3036" y1="1485.54" y2="1485.54"/>
  <rect height="119.336" id="left-margin" style="fill:#00AEEF;stroke:none;opacity:0.4;" width="9.96094" x="1389.61" y="1030.79"/>
  <rect height="119.336" id="right-margin" style="fill:#00AEEF;stroke:none;opacity:0.4;" width="9.96094" x="1500.11" y="1030.79"/>
 </g>
 <g id="Symbols">
  <g id="Black-L" transform="matrix(1 0 0 1 2853.05 1556)">
   <path d="M 31.1523 22.8027 L 129.59 22.8027 C 140.381 22.8027 147.803 14.3066 147.803 4.54102 C 147.803 1.51367 147.07 -1.5625 145.41 -4.44336 L 96.0938 -92.7734 C 92.627 -98.877 86.5723 -101.904 80.3711 -101.904 C 74.1699 -101.904 67.8711 -98.877 64.5996 -92.7734 L 15.2832 -4.3457 C 13.623 -1.5625 12.8906 1.51367 12.8906 4.54102 C 12.8906 14.3066 20.3125 22.8027 31.1523 22.8027 Z M 81.0547 -1.12305 C 71.6309 -1.12305 63.6719 -8.59375 63.6719 -18.0664 C 63.6719 -23.4863 66.4062 -28.6621 69.043 -33.5938 L 79.3457 -52.7344 C 79.7852 -53.5156 80.3223 -54.1016 81.0547 -54.1016 C 81.8359 -54.1016 82.373 -53.5156 82.7637 -52.7344 L 93.0664 -33.5938 C 95.752 -28.7109 98.4863 -23.4863 98.4863 -18.0664 C 98.4863 -8.59375 90.5273 -1.12305 81.0547 -1.12305 Z"/>
  </g>
  <g id="Heavy-L" transform="matrix(1 0 0 1 2557 1556)">
   <path d="M 30.4199 22.6562 L 129.004 22.6562 C 139.404 22.6562 146.484 14.5508 146.484 5.17578 C 146.484 2.24609 145.752 -0.732422 144.189 -3.4668 L 94.8242 -91.8945 C 91.5039 -97.7539 85.6445 -100.684 79.6875 -100.684 C 73.7793 -100.684 67.7246 -97.7539 64.5508 -91.8945 L 15.1855 -3.41797 C 13.5742 -0.732422 12.8906 2.24609 12.8906 5.17578 C 12.8906 14.5508 19.9707 22.6562 30.4199 22.6562 Z M 80.2246 -0.830078 C 70.752 -0.830078 62.8418 -8.30078 62.8418 -17.7734 C 62.8418 -23.1934 65.5762 -28.3691 68.2129 -33.3008 L 78.5645 -52.4902 C 79.0039 -53.2715 79.4922 -53.7598 80.2246 -53.7598 C 80.957 -53.7598 81.543 -53.2715 81.9336 -52.5391 L 92.2852 -33.3008 C 94.9219 -28.418 97.6074 -23.1934 97.6074 -17.7734 C 97.6074 -8.30078 89.6973 -0.830078 80.2246 -0.830078 Z"/>
  </g>
  <g id="Bold-L" transform="matrix(1 0 0 1 2261.02 1556)">
   <path d="M 29.5898 22.5586 L 128.32 22.5586 C 138.33 22.5586 145.02 14.8926 145.02 5.81055 C 145.02 3.02734 144.336 0.244141 142.822 -2.39258 L 93.3594 -90.918 C 90.2344 -96.4844 84.6191 -99.3164 78.9551 -99.3164 C 73.3398 -99.3164 67.5781 -96.5332 64.5508 -90.918 L 15.0879 -2.34375 C 13.5742 0.244141 12.8906 3.02734 12.8906 5.81055 C 12.8906 14.8926 19.5801 22.5586 29.5898 22.5586 Z M 79.2969 -0.439453 C 69.8242 -0.439453 61.9629 -7.95898 61.9629 -17.4805 C 61.9629 -22.9004 64.5996 -28.0273 67.2363 -32.959 L 77.6855 -52.2461 C 78.0762 -52.9785 78.5645 -53.418 79.2969 -53.418 C 80.0293 -53.418 80.6152 -52.9785 80.957 -52.2461 L 91.4062 -32.959 C 94.043 -28.0762 96.6797 -22.9004 96.6797 -17.4805 C 96.6797 -7.95898 88.8184 -0.439453 79.2969 -0.439453 Z"/>
  </g>
  <g id="Semibold-L" transform="matrix(1 0 0 1 1964.82 1556)">
   <path d="M 29.0527 22.4609 L 127.881 22.4609 C 137.598 22.4609 143.994 15.0879 143.994 6.29883 C 143.994 3.61328 143.311 0.878906 141.846 -1.66016 L 92.334 -90.2344 C 89.3555 -95.6543 83.9355 -98.3887 78.4668 -98.3887 C 72.998 -98.3887 67.4805 -95.6543 64.502 -90.2344 L 15.0391 -1.61133 C 13.5742 0.878906 12.8906 3.61328 12.8906 6.29883 C 12.8906 15.0879 19.2871 22.4609 29.0527 22.4609 Z M 78.6621 -0.195312 C 69.1406 -0.195312 61.3281 -7.76367 61.3281 -17.2852 C 61.3281 -22.7051 63.9648 -27.832 66.6016 -32.7148 L 77.0996 -52.0508 C 77.4902 -52.7832 77.9785 -53.2227 78.6621 -53.2227 C 79.3945 -53.2227 79.9316 -52.7832 80.2734 -52.0508 L 90.7715 -32.7148 C 93.4082 -27.832 96.0449 -22.7051 96.0449 -17.2852 C 96.0449 -7.76367 88.2324 -0.195312 78.6621 -0.195312 Z"/>
  </g>
  <g id="Medium-L" transform="matrix(1 0 0 1 1668.5 1556)">
   <path d="M 28.6133 22.3633 L 127.539 22.3633 C 137.012 22.3633 143.213 15.2344 143.213 6.64062 C 143.213 4.00391 142.578 1.36719 141.162 -1.12305 L 91.6016 -89.7461 C 88.6719 -94.9707 83.3984 -97.6562 78.0762 -97.6562 C 72.8027 -97.6562 67.3828 -95.0195 64.502 -89.7461 L 14.9902 -1.02539 C 13.5254 1.36719 12.8906 4.00391 12.8906 6.64062 C 12.8906 15.2344 19.0918 22.3633 28.6133 22.3633 Z M 78.1738 0 C 68.6523 0 60.8398 -7.56836 60.8398 -17.0898 C 60.8398 -22.5586 63.4766 -27.6855 66.1133 -32.5195 L 76.6113 -51.9043 C 77.002 -52.6367 77.4902 -53.0273 78.1738 -53.0273 C 78.9062 -53.0273 79.4434 -52.6367 79.7852 -51.9043 L 90.2832 -32.5195 C 92.9199 -27.6855 95.5566 -22.5586 95.5566 -17.0898 C 95.5566 -7.56836 87.7441 0 78.1738 0 Z"/>
  </g>
  <g id="Regular-L" transform="matrix(1 0 0 1 1372.31 1556)">
   <path d="M 28.0273 22.2656 L 127.1 22.2656 C 136.279 22.2656 142.188 15.4297 142.188 7.08008 C 142.188 4.58984 141.602 2.00195 140.234 -0.390625 L 90.625 -89.0625 C 87.793 -94.0918 82.666 -96.7285 77.5879 -96.7285 C 72.4609 -96.7285 67.2363 -94.1406 64.502 -89.0625 L 14.8926 -0.292969 C 13.5254 2.05078 12.8906 4.58984 12.8906 7.08008 C 12.8906 15.4297 18.8477 22.2656 28.0273 22.2656 Z M 77.5879 0.244141 C 67.9688 0.244141 60.2051 -7.37305 60.2051 -16.8945 C 60.2051 -22.3633 62.8418 -27.4414 65.4297 -32.3242 L 76.0254 -51.709 C 76.416 -52.4414 76.8555 -52.7832 77.5879 -52.7832 C 78.2227 -52.7832 78.8086 -52.4414 79.1016 -51.7578 L 89.6973 -32.3242 C 92.2852 -27.4414 94.9219 -22.3633 94.9219 -16.8945 C 94.9219 -7.37305 87.1582 0.244141 77.5879 0.244141 Z"/>
  </g>
  <g id="Light-L" transform="matrix(1 0 0 1 1075.86 1556)">
   <path d="M 27.7344 22.4121 L 126.855 22.4121 C 135.742 22.4121 141.65 15.5762 141.65 7.56836 C 141.65 5.07812 141.064 2.58789 139.697 0.195312 L 90.0391 -88.5254 C 87.3047 -93.4082 82.2754 -95.9473 77.2949 -95.9473 C 72.3145 -95.9473 67.1875 -93.457 64.4531 -88.5254 L 14.7949 0.292969 C 13.4766 2.53906 12.8906 5.07812 12.8906 7.56836 C 12.8906 15.5762 18.8477 22.4121 27.7344 22.4121 Z M 77.2949 0.390625 C 67.8223 0.390625 60.1562 -7.27539 60.1562 -16.748 C 60.1562 -22.1191 62.6953 -27.0508 65.2832 -31.8848 L 75.8789 -51.1719 C 76.2207 -51.8066 76.6113 -52.1484 77.2949 -52.1484 C 77.8809 -52.1484 78.4668 -51.8066 78.7109 -51.2207 L 89.3066 -31.8848 C 91.8945 -27.0508 94.4336 -22.1191 94.4336 -16.748 C 94.4336 -7.27539 86.7676 0.390625 77.2949 0.390625 Z"/>
  </g>
  <g id="Thin-L" transform="matrix(1 0 0 1 779.542 1556)">
   <path d="M 27.2949 22.6562 L 126.514 22.6562 C 135.01 22.6562 140.869 15.7715 140.869 8.1543 C 140.869 5.71289 140.381 3.32031 139.014 0.976562 L 89.3066 -87.7441 C 86.6699 -92.5293 81.7871 -94.9707 76.9043 -94.9707 C 72.1191 -94.9707 67.041 -92.5781 64.4531 -87.7441 L 14.6973 1.12305 C 13.3789 3.22266 12.8906 5.71289 12.8906 8.1543 C 12.8906 15.7715 18.8477 22.6562 27.2949 22.6562 Z M 76.9043 0.537109 C 67.5781 0.537109 60.0586 -7.17773 60.0586 -16.5039 C 60.0586 -21.8262 62.5 -26.5625 65.0391 -31.2988 L 75.6836 -50.4395 C 75.9277 -51.0254 76.3184 -51.3184 76.9043 -51.3184 C 77.4414 -51.3184 77.9785 -51.0254 78.1738 -50.4883 L 88.7695 -31.2988 C 91.3574 -26.5625 93.7988 -21.8262 93.7988 -16.5039 C 93.7988 -7.17773 86.2793 0.537109 76.9043 0.537109 Z"/>
  </g>
  <g id="Ultralight-L" transform="matrix(1 0 0 1 483.027 1556)">
   <path d="M 27.0996 22.7539 L 126.367 22.7539 C 134.619 22.7539 140.479 15.8203 140.479 8.44727 C 140.479 6.05469 140.039 3.66211 138.672 1.36719 L 88.9648 -87.3535 C 86.3281 -92.041 81.543 -94.4336 76.7578 -94.4336 C 72.0215 -94.4336 66.9922 -92.1387 64.4531 -87.3535 L 14.6484 1.51367 C 13.3789 3.56445 12.8906 6.05469 12.8906 8.44727 C 12.8906 15.8203 18.8477 22.7539 27.0996 22.7539 Z M 76.7578 0.634766 C 67.4316 0.634766 60.0098 -7.08008 60.0098 -16.4062 C 60.0098 -21.6797 62.4023 -26.3184 64.9414 -31.0059 L 75.5859 -50.0488 C 75.7812 -50.5859 76.1719 -50.9277 76.7578 -50.9277 C 77.1973 -50.9277 77.7344 -50.5859 77.8809 -50.1465 L 88.5254 -31.0059 C 91.0645 -26.3184 93.457 -21.6797 93.457 -16.4062 C 93.457 -7.08008 86.0352 0.634766 76.7578 0.634766 Z"/>
  </g>
  <g id="Black-M" transform="matrix(1 0 0 1 2870.44 1126)">
   <path d="M 24.9023 10.0098 L 101.074 10.0098 C 109.766 10.0098 115.967 2.88086 115.967 -4.93164 C 115.967 -7.4707 115.43 -9.96094 114.014 -12.3535 L 75.8789 -80.7129 C 72.998 -85.6934 68.0664 -88.1348 62.9883 -88.1348 C 57.9102 -88.1348 52.7344 -85.6934 50.0488 -80.7129 L 11.9141 -12.2559 C 10.498 -10.0098 9.96094 -7.4707 9.96094 -4.93164 C 9.96094 2.88086 16.1621 10.0098 24.9023 10.0098 Z M 63.7695 -9.17969 C 56.543 -9.17969 50.3906 -14.8926 50.3906 -22.2168 C 50.3906 -26.3672 52.4902 -30.2734 54.541 -34.1309 L 62.4512 -48.8281 C 62.7441 -49.4141 63.1836 -49.9023 63.7695 -49.9023 C 64.3066 -49.9023 64.7461 -49.4141 65.0879 -48.8281 L 72.998 -34.1309 C 75.0488 -30.3711 77.1484 -26.3672 77.1484 -22.2168 C 77.1484 -14.8926 70.9961 -9.17969 63.7695 -9.17969 Z"/>
  </g>
  <g id="Heavy-M" transform="matrix(1 0 0 1 2574.36 1126)">
   <path d="M 24.2188 9.81445 L 100.488 9.81445 C 108.838 9.81445 114.697 3.125 114.697 -4.44336 C 114.697 -6.78711 114.111 -9.17969 112.842 -11.4258 L 74.6094 -79.8828 C 71.9238 -84.668 67.1875 -87.0117 62.3535 -87.0117 C 57.5195 -87.0117 52.5879 -84.668 50 -79.8828 L 11.8164 -11.377 C 10.498 -9.22852 9.96094 -6.78711 9.96094 -4.44336 C 9.96094 3.125 15.7715 9.81445 24.2188 9.81445 Z M 62.9395 -8.83789 C 55.6641 -8.83789 49.5117 -14.5996 49.5117 -21.9238 C 49.5117 -26.123 51.6113 -30.0781 53.6621 -33.9355 L 61.6211 -48.7305 C 61.9629 -49.2676 62.3535 -49.7559 62.9395 -49.7559 C 63.4766 -49.7559 63.916 -49.2676 64.209 -48.7305 L 72.2168 -33.9355 C 74.2676 -30.127 76.3672 -26.123 76.3672 -21.9238 C 76.3672 -14.5996 70.2148 -8.83789 62.9395 -8.83789 Z"/>
  </g>
  <g id="Bold-M" transform="matrix(1 0 0 1 2278.38 1126)">
   <path d="M 23.3887 9.61914 L 99.8535 9.61914 C 107.812 9.61914 113.232 3.41797 113.232 -3.80859 C 113.232 -6.05469 112.695 -8.30078 111.475 -10.4492 L 73.1934 -79.0039 C 70.6543 -83.4961 66.1621 -85.7422 61.6211 -85.7422 C 57.0801 -85.7422 52.4414 -83.4961 50 -79.0039 L 11.7188 -10.4004 C 10.498 -8.34961 9.96094 -6.05469 9.96094 -3.80859 C 9.96094 3.41797 15.3809 9.61914 23.3887 9.61914 Z M 62.0117 -8.49609 C 54.6387 -8.49609 48.5352 -14.3066 48.5352 -21.6797 C 48.5352 -25.8789 50.6348 -29.8828 52.6855 -33.6914 L 60.6934 -48.584 C 61.0352 -49.1699 61.4258 -49.5605 62.0117 -49.5605 C 62.5488 -49.5605 62.9883 -49.1699 63.2812 -48.584 L 71.3379 -33.6914 C 73.3887 -29.8828 75.4883 -25.8789 75.4883 -21.6797 C 75.4883 -14.3066 69.3359 -8.49609 62.0117 -8.49609 Z"/>
  </g>
  <g id="Semibold-M" transform="matrix(1 0 0 1 1982.16 1126)">
   <path d="M 22.8516 9.47266 L 99.3652 9.47266 C 107.129 9.47266 112.256 3.61328 112.256 -3.41797 C 112.256 -5.56641 111.719 -7.71484 110.547 -9.76562 L 72.2168 -78.3691 C 69.8242 -82.666 65.4785 -84.8633 61.1328 -84.8633 C 56.7871 -84.8633 52.3438 -82.666 50 -78.3691 L 11.6699 -9.7168 C 10.498 -7.71484 9.96094 -5.56641 9.96094 -3.41797 C 9.96094 3.61328 15.0879 9.47266 22.8516 9.47266 Z M 61.377 -8.25195 C 53.9551 -8.25195 47.8516 -14.0625 47.8516 -21.4355 C 47.8516 -25.6836 49.9512 -29.6875 52.002 -33.4961 L 60.0586 -48.4863 C 60.4004 -49.0723 60.791 -49.4141 61.377 -49.4141 C 61.9141 -49.4141 62.3535 -49.0723 62.6465 -48.4863 L 70.752 -33.4961 C 72.8027 -29.7363 74.8535 -25.6836 74.8535 -21.4355 C 74.8535 -14.0625 68.75 -8.25195 61.377 -8.25195 Z"/>
  </g>
  <g id="Medium-M" transform="matrix(1 0 0 1 1685.84 1126)">
   <path d="M 22.4121 9.375 L 99.0234 9.375 C 106.592 9.375 111.475 3.75977 111.475 -3.125 C 111.475 -5.17578 110.986 -7.27539 109.863 -9.22852 L 71.4844 -77.8809 C 69.1406 -82.0801 64.9414 -84.1797 60.7422 -84.1797 C 56.543 -84.1797 52.2461 -82.0801 49.9512 -77.8809 L 11.6211 -9.17969 C 10.498 -7.27539 9.96094 -5.17578 9.96094 -3.125 C 9.96094 3.75977 14.8438 9.375 22.4121 9.375 Z M 60.8887 -8.05664 C 53.4668 -8.05664 47.3633 -13.916 47.3633 -21.2891 C 47.3633 -25.5371 49.4141 -29.5898 51.4648 -33.3984 L 59.5703 -48.3887 C 59.9121 -48.9746 60.3027 -49.3164 60.8887 -49.3164 C 61.4258 -49.3164 61.8652 -48.9746 62.1582 -48.4375 L 70.2637 -33.3984 C 72.3145 -29.5898 74.4141 -25.5371 74.4141 -21.2891 C 74.4141 -13.916 68.3105 -8.05664 60.8887 -8.05664 Z"/>
  </g>
  <g id="Regular-M" transform="matrix(1 0 0 1 1389.61 1126)">
   <path d="M 21.875 9.22852 L 98.584 9.22852 C 105.908 9.22852 110.498 3.95508 110.498 -2.68555 C 110.498 -4.6875 110.01 -6.68945 108.936 -8.54492 L 70.5078 -77.2949 C 68.3105 -81.25 64.2578 -83.3008 60.2539 -83.3008 C 56.2012 -83.3008 52.1484 -81.25 49.9512 -77.2949 L 11.5723 -8.49609 C 10.498 -6.64062 9.96094 -4.6875 9.96094 -2.68555 C 9.96094 3.95508 14.5508 9.22852 21.875 9.22852 Z M 60.2539 -7.8125 C 52.7832 -7.8125 46.6797 -13.6719 46.6797 -21.0938 C 46.6797 -25.3906 48.7305 -29.4434 50.7812 -33.2031 L 58.9844 -48.3398 C 59.2773 -48.877 59.668 -49.2188 60.2539 -49.2188 C 60.791 -49.2188 61.2305 -48.877 61.5234 -48.3398 L 69.6777 -33.2031 C 71.7285 -29.4434 73.7793 -25.3906 73.7793 -21.0938 C 73.7793 -13.6719 67.7246 -7.8125 60.2539 -7.8125 Z"/>
  </g>
  <g id="Light-M" transform="matrix(1 0 0 1 1093.15 1126)">
   <path d="M 21.582 9.375 L 98.3887 9.375 C 105.42 9.375 110.01 4.10156 110.01 -2.29492 C 110.01 -4.19922 109.521 -6.20117 108.447 -8.00781 L 70.0195 -76.7578 C 67.8711 -80.6641 63.916 -82.6172 60.0098 -82.6172 C 56.1035 -82.6172 52.0508 -80.6641 49.9512 -76.7578 L 11.4746 -7.95898 C 10.4492 -6.20117 9.96094 -4.19922 9.96094 -2.29492 C 9.96094 4.10156 14.5508 9.375 21.582 9.375 Z M 60.0098 -7.66602 C 52.5879 -7.66602 46.6309 -13.623 46.6309 -20.9473 C 46.6309 -25.1953 48.6328 -29.1016 50.6348 -32.8125 L 58.8379 -47.8027 C 59.1309 -48.3398 59.4727 -48.6328 60.0098 -48.6328 C 60.498 -48.6328 60.9375 -48.3398 61.1328 -47.8516 L 69.3359 -32.8125 C 71.3867 -29.1016 73.3887 -25.1953 73.3887 -20.9473 C 73.3887 -13.623 67.3828 -7.66602 60.0098 -7.66602 Z"/>
  </g>
  <g id="Thin-M" transform="matrix(1 0 0 1 796.779 1126)">
   <path d="M 21.2402 9.57031 L 98.0957 9.57031 C 104.736 9.57031 109.326 4.24805 109.326 -1.75781 C 109.326 -3.61328 108.887 -5.51758 107.861 -7.32422 L 69.3359 -76.0742 C 67.2852 -79.834 63.4766 -81.7383 59.668 -81.7383 C 55.9082 -81.7383 51.9531 -79.8828 49.9023 -76.0742 L 11.377 -7.22656 C 10.3516 -5.56641 9.96094 -3.61328 9.96094 -1.75781 C 9.96094 4.24805 14.5508 9.57031 21.2402 9.57031 Z M 59.668 -7.51953 C 52.3926 -7.51953 46.5332 -13.4766 46.5332 -20.752 C 46.5332 -24.9023 48.4375 -28.6133 50.4395 -32.3242 L 58.6426 -47.168 C 58.8867 -47.6074 59.1797 -47.9004 59.668 -47.9004 C 60.0586 -47.9004 60.498 -47.6074 60.6934 -47.2168 L 68.8965 -32.3242 C 70.8984 -28.6133 72.8027 -24.9023 72.8027 -20.752 C 72.8027 -13.4766 66.9434 -7.51953 59.668 -7.51953 Z"/>
  </g>
  <g id="Ultralight-M" transform="matrix(1 0 0 1 500.238 1126)">
   <path d="M 21.0449 9.66797 L 97.9492 9.66797 C 104.395 9.66797 108.984 4.3457 108.984 -1.46484 C 108.984 -3.32031 108.594 -5.17578 107.52 -6.98242 L 68.9941 -75.7324 C 66.9434 -79.3945 63.2324 -81.2988 59.4727 -81.2988 C 55.8105 -81.2988 51.9043 -79.4922 49.9023 -75.7324 L 11.3281 -6.88477 C 10.3516 -5.27344 9.96094 -3.32031 9.96094 -1.46484 C 9.96094 4.3457 14.5508 9.66797 21.0449 9.66797 Z M 59.4727 -7.4707 C 52.2461 -7.4707 46.4844 -13.4277 46.4844 -20.6543 C 46.4844 -24.7559 48.3398 -28.3691 50.3418 -32.0801 L 58.5449 -46.8262 C 58.7402 -47.2656 59.082 -47.5098 59.4727 -47.5098 C 59.8633 -47.5098 60.3027 -47.2656 60.4004 -46.875 L 68.6523 -32.0801 C 70.6543 -28.3691 72.5098 -24.7559 72.5098 -20.6543 C 72.5098 -13.4277 66.6992 -7.4707 59.4727 -7.4707 Z"/>
  </g>
  <g id="Black-S" transform="matrix(1 0 0 1 2884.11 696)">
   <path d="M 19.4824 0.195312 L 79.1504 0.195312 C 85.9375 0.195312 90.7715 -5.37109 90.7715 -11.4746 C 90.7715 -13.4277 90.332 -15.3809 89.2578 -17.2363 L 59.375 -70.8008 C 57.1289 -74.707 53.2715 -76.6113 49.3164 -76.6113 C 45.3613 -76.6113 41.3086 -74.707 39.209 -70.8008 L 9.32617 -17.1875 C 8.25195 -15.4297 7.8125 -13.4277 7.8125 -11.4746 C 7.8125 -5.37109 12.6465 0.195312 19.4824 0.195312 Z M 49.9023 -14.7949 C 44.2383 -14.7949 39.4043 -19.2871 39.4043 -25 C 39.4043 -28.2715 41.0645 -31.3477 42.6758 -34.375 L 48.877 -45.8984 C 49.1211 -46.3379 49.4629 -46.7285 49.9023 -46.7285 C 50.3418 -46.7285 50.6836 -46.3379 50.9277 -45.8984 L 57.1289 -34.375 C 58.7402 -31.3965 60.4004 -28.2715 60.4004 -25 C 60.4004 -19.2871 55.5664 -14.7949 49.9023 -14.7949 Z"/>
  </g>
  <g id="Heavy-S" transform="matrix(1 0 0 1 2587.86 696)">
   <path d="M 18.9453 0.0488281 L 78.7109 0.0488281 C 85.3027 0.0488281 89.8438 -5.17578 89.8438 -11.1328 C 89.8438 -12.9883 89.4043 -14.8438 88.3789 -16.6016 L 58.4473 -70.2637 C 56.3477 -73.9746 52.6367 -75.8301 48.8281 -75.8301 C 45.0684 -75.8301 41.2109 -73.9746 39.209 -70.2637 L 9.27734 -16.5527 C 8.25195 -14.8926 7.8125 -12.9883 7.8125 -11.1328 C 7.8125 -5.17578 12.3535 0.0488281 18.9453 0.0488281 Z M 49.3164 -14.5508 C 43.5547 -14.5508 38.7207 -19.0918 38.7207 -24.8047 C 38.7207 -28.125 40.3809 -31.25 41.9922 -34.2285 L 48.2422 -45.8496 C 48.5352 -46.2891 48.8281 -46.6797 49.3164 -46.6797 C 49.7559 -46.6797 50.0977 -46.2891 50.3418 -45.8496 L 56.5918 -34.2285 C 58.2031 -31.25 59.8633 -28.125 59.8633 -24.8047 C 59.8633 -19.0918 55.0293 -14.5508 49.3164 -14.5508 Z"/>
  </g>
  <g id="Bold-S" transform="matrix(1 0 0 1 2291.66 696)">
   <path d="M 18.4082 -0.146484 L 78.2715 -0.146484 C 84.5703 -0.146484 88.8184 -4.98047 88.8184 -10.6934 C 88.8184 -12.4512 88.3789 -14.2578 87.4023 -15.918 L 57.4219 -69.6289 C 55.4199 -73.1445 51.9043 -74.9023 48.3398 -74.9023 C 44.7266 -74.9023 41.1133 -73.1445 39.1602 -69.6289 L 9.22852 -15.8691 C 8.25195 -14.2578 7.8125 -12.4512 7.8125 -10.6934 C 7.8125 -4.98047 12.0605 -0.146484 18.4082 -0.146484 Z M 48.6328 -14.3066 C 42.8223 -14.3066 37.9883 -18.8477 37.9883 -24.6094 C 37.9883 -27.9297 39.6484 -31.1035 41.2598 -34.082 L 47.5586 -45.8008 C 47.8516 -46.2891 48.1445 -46.582 48.6328 -46.582 C 49.0723 -46.582 49.4141 -46.2891 49.6582 -45.8008 L 55.957 -34.082 C 57.5684 -31.1035 59.2285 -27.9297 59.2285 -24.6094 C 59.2285 -18.8477 54.3945 -14.3066 48.6328 -14.3066 Z"/>
  </g>
  <g id="Semibold-S" transform="matrix(1 0 0 1 1995.32 696)">
   <path d="M 17.9688 -0.244141 L 77.9297 -0.244141 C 84.082 -0.244141 88.0859 -4.83398 88.0859 -10.4492 C 88.0859 -12.1094 87.6465 -13.8184 86.7676 -15.4297 L 56.7383 -69.1895 C 54.834 -72.5586 51.416 -74.3164 47.9492 -74.3164 C 44.5312 -74.3164 41.0156 -72.5586 39.1602 -69.1895 L 9.17969 -15.3809 C 8.25195 -13.8184 7.8125 -12.1094 7.8125 -10.4492 C 7.8125 -4.83398 11.8164 -0.244141 17.9688 -0.244141 Z M 48.1445 -14.1113 C 42.334 -14.1113 37.5 -18.7012 37.5 -24.4629 C 37.5 -27.832 39.1602 -31.0059 40.7715 -33.9844 L 47.1191 -45.8008 C 47.3633 -46.2402 47.6562 -46.5332 48.1445 -46.5332 C 48.6328 -46.5332 48.9746 -46.2402 49.1699 -45.8008 L 55.5176 -33.9844 C 57.1289 -31.0059 58.7891 -27.832 58.7891 -24.4629 C 58.7891 -18.7012 53.9551 -14.1113 48.1445 -14.1113 Z"/>
  </g>
  <g id="Medium-S" transform="matrix(1 0 0 1 1698.87 696)">
   <path d="M 17.6758 -0.341797 L 77.6855 -0.341797 C 83.6914 -0.341797 87.5488 -4.73633 87.5488 -10.2051 C 87.5488 -11.8652 87.1094 -13.5254 86.2305 -15.0391 L 56.2012 -68.8477 C 54.3457 -72.168 51.0254 -73.8281 47.7051 -73.8281 C 44.3359 -73.8281 40.9668 -72.168 39.1602 -68.8477 L 9.17969 -15.0391 C 8.25195 -13.4766 7.8125 -11.8652 7.8125 -10.2051 C 7.8125 -4.73633 11.6699 -0.341797 17.6758 -0.341797 Z M 47.8027 -13.9648 C 41.9434 -13.9648 37.1094 -18.5547 37.1094 -24.3652 C 37.1094 -27.7344 38.7695 -30.957 40.3809 -33.9355 L 46.7285 -45.752 C 47.0215 -46.2402 47.3145 -46.4844 47.8027 -46.4844 C 48.2422 -46.4844 48.584 -46.2402 48.8281 -45.752 L 55.2246 -33.9355 C 56.8359 -30.957 58.4473 -27.7344 58.4473 -24.3652 C 58.4473 -18.5547 53.6621 -13.9648 47.8027 -13.9648 Z"/>
  </g>
  <g id="Regular-S" transform="matrix(1 0 0 1 1402.53 696)">
   <path d="M 17.2852 -0.488281 L 77.3438 -0.488281 C 83.2031 -0.488281 86.8164 -4.58984 86.8164 -9.96094 C 86.8164 -11.5234 86.4258 -13.0859 85.5957 -14.5508 L 55.4688 -68.4082 C 53.7598 -71.582 50.5371 -73.2422 47.3145 -73.2422 C 44.1406 -73.2422 40.918 -71.582 39.1602 -68.4082 L 9.13086 -14.5508 C 8.25195 -13.0859 7.8125 -11.5234 7.8125 -9.96094 C 7.8125 -4.58984 11.4258 -0.488281 17.2852 -0.488281 Z M 47.3145 -13.8184 C 41.4062 -13.8184 36.6211 -18.4082 36.6211 -24.2676 C 36.6211 -27.5879 38.2812 -30.8594 39.8926 -33.8379 L 46.2891 -45.7031 C 46.5332 -46.1914 46.8262 -46.4355 47.3145 -46.4355 C 47.8027 -46.4355 48.1445 -46.1914 48.3887 -45.7031 L 54.7852 -33.8379 C 56.3965 -30.8594 58.0566 -27.5879 58.0566 -24.2676 C 58.0566 -18.4082 53.2227 -13.8184 47.3145 -13.8184 Z"/>
  </g>
  <g id="Light-S" transform="matrix(1 0 0 1 1106.04 696)">
   <path d="M 17.041 -0.341797 L 77.1484 -0.341797 C 82.7637 -0.341797 86.377 -4.49219 86.377 -9.57031 C 86.377 -11.084 85.9863 -12.6465 85.1562 -14.1113 L 55.0293 -67.9688 C 53.3203 -71.0449 50.2441 -72.6562 47.1191 -72.6562 C 43.9941 -72.6562 40.8203 -71.0449 39.1602 -67.9688 L 9.0332 -14.0625 C 8.20312 -12.6465 7.8125 -11.084 7.8125 -9.57031 C 7.8125 -4.49219 11.4258 -0.341797 17.041 -0.341797 Z M 47.1191 -13.7207 C 41.2598 -13.7207 36.5723 -18.3105 36.5723 -24.1211 C 36.5723 -27.4414 38.1348 -30.5664 39.7461 -33.4961 L 46.1426 -45.2637 C 46.3867 -45.7031 46.6797 -45.9473 47.1191 -45.9473 C 47.5098 -45.9473 47.8516 -45.7031 48.0469 -45.3125 L 54.4922 -33.4961 C 56.0547 -30.5664 57.666 -27.4414 57.666 -24.1211 C 57.666 -18.3105 52.9297 -13.7207 47.1191 -13.7207 Z"/>
  </g>
  <g id="Thin-S" transform="matrix(1 0 0 1 809.62 696)">
   <path d="M 16.6992 -0.146484 L 76.9043 -0.146484 C 82.2266 -0.146484 85.791 -4.3457 85.791 -9.08203 C 85.791 -10.5957 85.4492 -12.1094 84.6191 -13.5254 L 54.4922 -67.3828 C 52.832 -70.3125 49.8047 -71.8262 46.8262 -71.8262 C 43.8477 -71.8262 40.7227 -70.3613 39.1113 -67.3828 L 8.93555 -13.4277 C 8.1543 -12.1094 7.8125 -10.5957 7.8125 -9.08203 C 7.8125 -4.3457 11.4258 -0.146484 16.6992 -0.146484 Z M 46.8262 -13.5742 C 41.1133 -13.5742 36.4746 -18.2129 36.4746 -23.9258 C 36.4746 -27.1973 37.9883 -30.127 39.5508 -33.0566 L 45.9961 -44.7266 C 46.1914 -45.0684 46.4355 -45.3125 46.8262 -45.3125 C 47.168 -45.3125 47.5098 -45.0684 47.6562 -44.7266 L 54.0527 -33.0566 C 55.6641 -30.127 57.1777 -27.1973 57.1777 -23.9258 C 57.1777 -18.2129 52.5391 -13.5742 46.8262 -13.5742 Z"/>
  </g>
  <g id="Ultralight-S" transform="matrix(1 0 0 1 513.08 696)">
   <path d="M 16.5527 -0.0488281 L 76.8066 -0.0488281 C 81.8848 -0.0488281 85.4492 -4.24805 85.4492 -8.83789 C 85.4492 -10.3027 85.1562 -11.7676 84.3262 -13.1836 L 54.1504 -67.041 C 52.5391 -69.9707 49.6094 -71.4355 46.6797 -71.4355 C 43.75 -71.4355 40.6738 -70.0195 39.1113 -67.041 L 8.88672 -13.1348 C 8.10547 -11.8164 7.8125 -10.3027 7.8125 -8.83789 C 7.8125 -4.24805 11.4258 -0.0488281 16.5527 -0.0488281 Z M 46.6797 -13.4766 C 40.9668 -13.4766 36.4258 -18.1641 36.4258 -23.8281 C 36.4258 -27.0996 37.8906 -29.9316 39.4531 -32.8125 L 45.8984 -44.3848 C 46.0938 -44.7754 46.3379 -44.9707 46.6797 -44.9707 C 46.9727 -44.9707 47.3145 -44.7754 47.4121 -44.4336 L 53.8574 -32.8125 C 55.4199 -29.9316 56.8848 -27.0996 56.8848 -23.8281 C 56.8848 -18.1641 52.3438 -13.4766 46.6797 -13.4766 Z"/>
  </g>
 </g>
</svg>
